<?xml version="1.0" encoding="UTF-8"?><svg id="Layer_2" xmlns="http://www.w3.org/2000/svg" viewBox="0 0 283.93 70.46"><defs><style>.cls-1{fill:#fff;}.cls-2{fill:#ee9821;}.cls-3{fill:#3b4954;}</style></defs><g id="Fonseca_Color_1"><g><g><g><path class="cls-3" d="M0,17.17L2.34,5.42l31.42,4.28,5.24,10.18-.83,11.59-8.75-1.19-4.78,35.13-15.07-2.05-5.65-9.87,3.57-26.19-1.82-.25L0,17.17Zm31.77,3.09l.67-9.5L3.33,6.79l-1.89,9.34,8.63,1.17L5.29,52.43l13.01,1.77,4.78-35.13,8.69,1.18Z"/><path class="cls-3" d="M34.31,57.5l4.04-47.24,16.75,1.43c5.81,.5,10.8,4.06,13.51,9.03,.26,.52,.52,1.15,5.44,9.15,1.89,3.06,2.77,6.52,2.45,10.18-.42,4.89-2.94,9.23-6.89,12.15l5.49,17.83-14.48-1.24-4.43-7.27-.59,6.84-15.16-1.3-6.14-9.57Zm28.16-15.45c3.93-2.8,6.63-7.01,7.05-11.83,.74-8.62-6.03-16.58-14.53-17.31l-15.52-1.33-3.83,44.8,13.08,1.12,1.1-12.83,2.81,.24,2.88,13.17,12.22,1.04-5.25-17.07Zm-11.92-6.74l1.12-13.14,1.77,.15c2.38,.2,4.22,3.19,3.9,6.92-.32,3.73-2.52,6.43-4.78,6.24l-2.02-.17Z"/><path class="cls-3" d="M98.83,23.44l-1.76,47.02-15.2-.57-6.59-9.27,1.78-47.38,15.57,.58,6.21,9.62Zm-7.48-8.44l-13.12-.49-1.68,44.93,13.12,.49,1.69-44.93Z"/><path class="cls-3" d="M114.88,13.86c5.77-.08,11.14,3.04,14.33,7.6,.37,.55,.63,1.16,6.31,8.63,2.19,2.85,3.4,6.21,3.44,9.89,.12,8.83-7.44,17.21-16.76,17.34l-1.41,.02,.17,12.88-15.21,.2-7.05-8.92-.63-47.41,16.81-.22Zm-15.56,1.43l.6,44.96,13.13-.17-.17-12.88,2.45-.03c8.83-.12,15.84-8,15.74-16.28-.11-8.65-7.63-15.91-16.16-15.8l-15.58,.21Zm13.36,22.52l-.17-13.19,1.78-.02c2.39-.03,4.51,2.76,4.56,6.5s-1.88,6.65-4.14,6.68l-2.02,.03Z"/><path class="cls-3" d="M169.62,43.84c2.08,2.3,3.34,5.1,3.59,8.53,.64,8.56-5.96,15.7-15.01,16.38-7.71,.58-13.31-3.55-18.99-9.52l-7.67-8.71,10.61-8.55-3.78-4.51c-2.83-2.43-5.03-5.59-5.37-10.05-.64-8.5,6.16-15.47,14.97-16.13,4.65-.35,10.19,1.39,14.65,4.99l7.17,8.69-7.82,9.69c.67,.75,1.29,1.56,1.85,2.45l5.8,6.76Zm-23.21-19.11c-.11-1.53,.91-2.65,2.32-2.76,2.14-.16,4.2,1.9,5.39,2.92l6.81-8.45c-3.6-2.93-8.44-4.29-12.85-3.96-8.07,.61-14.42,6.99-13.83,14.82,.46,6.18,5.43,10.05,10.03,12.35,1.86,.97,8.2,3.57,8.45,6.87,.13,1.77-1.38,2.93-3.09,3.06-3.73,.28-6.09-4.16-7.53-6.02l-8.75,7.12c4.95,5.35,10.14,8.9,17.36,8.35,8.5-.64,14.64-7.31,14.05-15.27-.5-6.73-5.88-11.18-11.49-13.72-1.72-.85-6.66-2.64-6.86-5.33Zm-1.83,19.88l2.44,2.95c.79,.62,1.6,.86,2.4,.8-1.74-1.04-3.3-2.21-4.84-3.76Z"/><path class="cls-3" d="M165.66,22.9l-.84-11.95,31.44-4.15,7.74,8.45,2.25,11.4-8.76,1.16,4.64,35.15-15.08,1.99-8.05-8.03-3.46-26.21-1.82,.24-8.05-8.03Zm31.46-5.39l-1.85-9.35-29.13,3.85,.64,9.51,8.64-1.14,4.64,35.15,13.01-1.72-4.64-35.15,8.7-1.15Z"/><path class="cls-3" d="M226.74,23.76l4.2-.56,7.75,8.44,.58,9.95,3.73,3.84,.8,11.59-27.48,3.66-8.06-8.02-6.26-47,27.85-3.71,7.75,8.44,2.26,11.4-13.13,1.75,.03,.24Zm-6.47,10.45l10.03-1.34-.49-8.29-10.64,1.42-1.55-11.61,13.07-1.74-1.86-9.34-25.48,3.39,5.94,44.57,25.48-3.39-.65-9.51-13.07,1.74-.79-5.9Z"/><path class="cls-3" d="M241.85,48.16L239.64,.8,256.43,.02c5.82-.27,11.24,2.61,14.58,7.18,.33,.48,.66,1.07,6.59,8.35,2.28,2.78,3.6,6.1,3.77,9.77,.23,4.9-1.71,9.54-5.23,12.95l7.79,16.95-14.52,.68-5.34-6.63,.32,6.86-15.2,.71-7.34-8.69Zm25.89-19.01c3.53-3.3,5.65-7.82,5.43-12.66-.4-8.64-8.16-15.65-16.68-15.25l-15.56,.72,2.09,44.91,13.11-.61-.6-12.87,2.82-.13,4.58,12.68,12.26-.57-7.45-16.23Zm-12.7-5.12l-.61-13.17,1.78-.08c2.39-.11,4.6,2.61,4.78,6.35,.17,3.74-1.65,6.71-3.92,6.81l-2.02,.09Z"/></g><g><path class="cls-3" d="M0,17.17L2.34,5.42l31.42,4.28,5.24,10.18-.83,11.59-8.75-1.19-4.78,35.13-15.07-2.05-5.65-9.87,3.57-26.19-1.82-.25L0,17.17Zm31.77,3.09l.67-9.5L3.33,6.79l-1.89,9.34,8.63,1.17L5.29,52.43l13.01,1.77,4.78-35.13,8.69,1.18Z"/><path class="cls-3" d="M34.31,57.5l4.04-47.24,16.75,1.43c5.81,.5,10.8,4.06,13.51,9.03,.26,.52,.52,1.15,5.44,9.15,1.89,3.06,2.77,6.52,2.45,10.18-.42,4.89-2.94,9.23-6.89,12.15l5.49,17.83-14.48-1.24-4.43-7.27-.59,6.84-15.16-1.3-6.14-9.57Zm28.16-15.45c3.93-2.8,6.63-7.01,7.05-11.83,.74-8.62-6.03-16.58-14.53-17.31l-15.52-1.33-3.83,44.8,13.08,1.12,1.1-12.83,2.81,.24,2.88,13.17,12.22,1.04-5.25-17.07Zm-11.92-6.74l1.12-13.14,1.77,.15c2.38,.2,4.22,3.19,3.9,6.92-.32,3.73-2.52,6.43-4.78,6.24l-2.02-.17Z"/><path class="cls-3" d="M98.83,23.44l-1.76,47.02-15.2-.57-6.59-9.27,1.78-47.38,15.57,.58,6.21,9.62Zm-7.48-8.44l-13.12-.49-1.68,44.93,13.12,.49,1.69-44.93Z"/><path class="cls-3" d="M114.88,13.86c5.77-.08,11.14,3.04,14.33,7.6,.37,.55,.63,1.16,6.31,8.63,2.19,2.85,3.4,6.21,3.44,9.89,.12,8.83-7.44,17.21-16.76,17.34l-1.41,.02,.17,12.88-15.21,.2-7.05-8.92-.63-47.41,16.81-.22Zm-15.56,1.43l.6,44.96,13.13-.17-.17-12.88,2.45-.03c8.83-.12,15.84-8,15.74-16.28-.11-8.65-7.63-15.91-16.16-15.8l-15.58,.21Zm13.36,22.52l-.17-13.19,1.78-.02c2.39-.03,4.51,2.76,4.56,6.5s-1.88,6.65-4.14,6.68l-2.02,.03Z"/><path class="cls-3" d="M169.62,43.84c2.08,2.3,3.34,5.1,3.59,8.53,.64,8.56-5.96,15.7-15.01,16.38-7.71,.58-13.31-3.55-18.99-9.52l-7.67-8.71,10.61-8.55-3.78-4.51c-2.83-2.43-5.03-5.59-5.37-10.05-.64-8.5,6.16-15.47,14.97-16.13,4.65-.35,10.19,1.39,14.65,4.99l7.17,8.69-7.82,9.69c.67,.75,1.29,1.56,1.85,2.45l5.8,6.76Zm-23.21-19.11c-.11-1.53,.91-2.65,2.32-2.76,2.14-.16,4.2,1.9,5.39,2.92l6.81-8.45c-3.6-2.93-8.44-4.29-12.85-3.96-8.07,.61-14.42,6.99-13.83,14.82,.46,6.18,5.43,10.05,10.03,12.35,1.86,.97,8.2,3.57,8.45,6.87,.13,1.77-1.38,2.93-3.09,3.06-3.73,.28-6.09-4.16-7.53-6.02l-8.75,7.12c4.95,5.35,10.14,8.9,17.36,8.35,8.5-.64,14.64-7.31,14.05-15.27-.5-6.73-5.88-11.18-11.49-13.72-1.72-.85-6.66-2.64-6.86-5.33Zm-1.83,19.88l2.44,2.95c.79,.62,1.6,.86,2.4,.8-1.74-1.04-3.3-2.21-4.84-3.76Z"/><path class="cls-3" d="M165.66,22.9l-.84-11.95,31.44-4.15,7.74,8.45,2.25,11.4-8.76,1.16,4.64,35.15-15.08,1.99-8.05-8.03-3.46-26.21-1.82,.24-8.05-8.03Zm31.46-5.39l-1.85-9.35-29.13,3.85,.64,9.51,8.64-1.14,4.64,35.15,13.01-1.72-4.64-35.15,8.7-1.15Z"/><path class="cls-3" d="M226.74,23.76l4.2-.56,7.75,8.44,.58,9.95,3.73,3.84,.8,11.59-27.48,3.66-8.06-8.02-6.26-47,27.85-3.71,7.75,8.44,2.26,11.4-13.13,1.75,.03,.24Zm-6.47,10.45l10.03-1.34-.49-8.29-10.64,1.42-1.55-11.61,13.07-1.74-1.86-9.34-25.48,3.39,5.94,44.57,25.48-3.39-.65-9.51-13.07,1.74-.79-5.9Z"/><path class="cls-3" d="M241.85,48.16L239.64,.8,256.43,.02c5.82-.27,11.24,2.61,14.58,7.18,.33,.48,.66,1.07,6.59,8.35,2.28,2.78,3.6,6.1,3.77,9.77,.23,4.9-1.71,9.54-5.23,12.95l7.79,16.95-14.52,.68-5.34-6.63,.32,6.86-15.2,.71-7.34-8.69Zm25.89-19.01c3.53-3.3,5.65-7.82,5.43-12.66-.4-8.64-8.16-15.65-16.68-15.25l-15.56,.72,2.09,44.91,13.11-.61-.6-12.87,2.82-.13,4.58,12.68,12.26-.57-7.45-16.23Zm-12.7-5.12l-.61-13.17,1.78-.08c2.39-.11,4.6,2.61,4.78,6.35,.17,3.74-1.65,6.71-3.92,6.81l-2.02,.09Z"/></g><g><path class="cls-3" d="M0,17.17L2.34,5.42l31.42,4.28,5.24,10.18-.83,11.59-8.75-1.19-4.78,35.13-15.07-2.05-5.65-9.87,3.57-26.19-1.82-.25L0,17.17Zm31.77,3.09l.67-9.5L3.33,6.79l-1.89,9.34,8.63,1.17L5.29,52.43l13.01,1.77,4.78-35.13,8.69,1.18Z"/><path class="cls-3" d="M34.31,57.5l4.04-47.24,16.75,1.43c5.81,.5,10.8,4.06,13.51,9.03,.26,.52,.52,1.15,5.44,9.15,1.89,3.06,2.77,6.52,2.45,10.18-.42,4.89-2.94,9.23-6.89,12.15l5.49,17.83-14.48-1.24-4.43-7.27-.59,6.84-15.16-1.3-6.14-9.57Zm28.16-15.45c3.93-2.8,6.63-7.01,7.05-11.83,.74-8.62-6.03-16.58-14.53-17.31l-15.52-1.33-3.83,44.8,13.08,1.12,1.1-12.83,2.81,.24,2.88,13.17,12.22,1.04-5.25-17.07Zm-11.92-6.74l1.12-13.14,1.77,.15c2.38,.2,4.22,3.19,3.9,6.92-.32,3.73-2.52,6.43-4.78,6.24l-2.02-.17Z"/><path class="cls-3" d="M98.83,23.44l-1.76,47.02-15.2-.57-6.59-9.27,1.78-47.38,15.57,.58,6.21,9.62Zm-7.48-8.44l-13.12-.49-1.68,44.93,13.12,.49,1.69-44.93Z"/><path class="cls-3" d="M114.88,13.86c5.77-.08,11.14,3.04,14.33,7.6,.37,.55,.63,1.16,6.31,8.63,2.19,2.85,3.4,6.21,3.44,9.89,.12,8.83-7.44,17.21-16.76,17.34l-1.41,.02,.17,12.88-15.21,.2-7.05-8.92-.63-47.41,16.81-.22Zm-15.56,1.43l.6,44.96,13.13-.17-.17-12.88,2.45-.03c8.83-.12,15.84-8,15.74-16.28-.11-8.65-7.63-15.91-16.16-15.8l-15.58,.21Zm13.36,22.52l-.17-13.19,1.78-.02c2.39-.03,4.51,2.76,4.56,6.5s-1.88,6.65-4.14,6.68l-2.02,.03Z"/><path class="cls-3" d="M169.62,43.84c2.08,2.3,3.34,5.1,3.59,8.53,.64,8.56-5.96,15.7-15.01,16.38-7.71,.58-13.31-3.55-18.99-9.52l-7.67-8.71,10.61-8.55-3.78-4.51c-2.83-2.43-5.03-5.59-5.37-10.05-.64-8.5,6.16-15.47,14.97-16.13,4.65-.35,10.19,1.39,14.65,4.99l7.17,8.69-7.82,9.69c.67,.75,1.29,1.56,1.85,2.45l5.8,6.76Zm-23.21-19.11c-.11-1.53,.91-2.65,2.32-2.76,2.14-.16,4.2,1.9,5.39,2.92l6.81-8.45c-3.6-2.93-8.44-4.29-12.85-3.96-8.07,.61-14.42,6.99-13.83,14.82,.46,6.18,5.43,10.05,10.03,12.35,1.86,.97,8.2,3.57,8.45,6.87,.13,1.77-1.38,2.93-3.09,3.06-3.73,.28-6.09-4.16-7.53-6.02l-8.75,7.12c4.95,5.35,10.14,8.9,17.36,8.35,8.5-.64,14.64-7.31,14.05-15.27-.5-6.73-5.88-11.18-11.49-13.72-1.72-.85-6.66-2.64-6.86-5.33Zm-1.83,19.88l2.44,2.95c.79,.62,1.6,.86,2.4,.8-1.74-1.04-3.3-2.21-4.84-3.76Z"/><path class="cls-3" d="M165.66,22.9l-.84-11.95,31.44-4.15,7.74,8.45,2.25,11.4-8.76,1.16,4.64,35.15-15.08,1.99-8.05-8.03-3.46-26.21-1.82,.24-8.05-8.03Zm31.46-5.39l-1.85-9.35-29.13,3.85,.64,9.51,8.64-1.14,4.64,35.15,13.01-1.72-4.64-35.15,8.7-1.15Z"/><path class="cls-3" d="M226.74,23.76l4.2-.56,7.75,8.44,.58,9.95,3.73,3.84,.8,11.59-27.48,3.66-8.06-8.02-6.26-47,27.85-3.71,7.75,8.44,2.26,11.4-13.13,1.75,.03,.24Zm-6.47,10.45l10.03-1.34-.49-8.29-10.64,1.42-1.55-11.61,13.07-1.74-1.86-9.34-25.48,3.39,5.94,44.57,25.48-3.39-.65-9.51-13.07,1.74-.79-5.9Z"/><path class="cls-3" d="M241.85,48.16L239.64,.8,256.43,.02c5.82-.27,11.24,2.61,14.58,7.18,.33,.48,.66,1.07,6.59,8.35,2.28,2.78,3.6,6.1,3.77,9.77,.23,4.9-1.71,9.54-5.23,12.95l7.79,16.95-14.52,.68-5.34-6.63,.32,6.86-15.2,.71-7.34-8.69Zm25.89-19.01c3.53-3.3,5.65-7.82,5.43-12.66-.4-8.64-8.16-15.65-16.68-15.25l-15.56,.72,2.09,44.91,13.11-.61-.6-12.87,2.82-.13,4.58,12.68,12.26-.57-7.45-16.23Zm-12.7-5.12l-.61-13.17,1.78-.08c2.39-.11,4.6,2.61,4.78,6.35,.17,3.74-1.65,6.71-3.92,6.81l-2.02,.09Z"/></g><g><path class="cls-3" d="M0,17.17L2.34,5.42l31.42,4.28,5.24,10.18-.83,11.59-8.75-1.19-4.78,35.13-15.07-2.05-5.65-9.87,3.57-26.19-1.82-.25L0,17.17Zm31.77,3.09l.67-9.5L3.33,6.79l-1.89,9.34,8.63,1.17L5.29,52.43l13.01,1.77,4.78-35.13,8.69,1.18Z"/><path class="cls-3" d="M34.31,57.5l4.04-47.24,16.75,1.43c5.81,.5,10.8,4.06,13.51,9.03,.26,.52,.52,1.15,5.44,9.15,1.89,3.06,2.77,6.52,2.45,10.18-.42,4.89-2.94,9.23-6.89,12.15l5.49,17.83-14.48-1.24-4.43-7.27-.59,6.84-15.16-1.3-6.14-9.57Zm28.16-15.45c3.93-2.8,6.63-7.01,7.05-11.83,.74-8.62-6.03-16.58-14.53-17.31l-15.52-1.33-3.83,44.8,13.08,1.12,1.1-12.83,2.81,.24,2.88,13.17,12.22,1.04-5.25-17.07Zm-11.92-6.74l1.12-13.14,1.77,.15c2.38,.2,4.22,3.19,3.9,6.92-.32,3.73-2.52,6.43-4.78,6.24l-2.02-.17Z"/><path class="cls-3" d="M98.83,23.44l-1.76,47.02-15.2-.57-6.59-9.27,1.78-47.38,15.57,.58,6.21,9.62Zm-7.48-8.44l-13.12-.49-1.68,44.93,13.12,.49,1.69-44.93Z"/><path class="cls-3" d="M114.88,13.86c5.77-.08,11.14,3.04,14.33,7.6,.37,.55,.63,1.16,6.31,8.63,2.19,2.85,3.4,6.21,3.44,9.89,.12,8.83-7.44,17.21-16.76,17.34l-1.41,.02,.17,12.88-15.21,.2-7.05-8.92-.63-47.41,16.81-.22Zm-15.56,1.43l.6,44.96,13.13-.17-.17-12.88,2.45-.03c8.83-.12,15.84-8,15.74-16.28-.11-8.65-7.63-15.91-16.16-15.8l-15.58,.21Zm13.36,22.52l-.17-13.19,1.78-.02c2.39-.03,4.51,2.76,4.56,6.5s-1.88,6.65-4.14,6.68l-2.02,.03Z"/><path class="cls-3" d="M169.62,43.84c2.08,2.3,3.34,5.1,3.59,8.53,.64,8.56-5.96,15.7-15.01,16.38-7.71,.58-13.31-3.55-18.99-9.52l-7.67-8.71,10.61-8.55-3.78-4.51c-2.83-2.43-5.03-5.59-5.37-10.05-.64-8.5,6.16-15.47,14.97-16.13,4.65-.35,10.19,1.39,14.65,4.99l7.17,8.69-7.82,9.69c.67,.75,1.29,1.56,1.85,2.45l5.8,6.76Zm-23.21-19.11c-.11-1.53,.91-2.65,2.32-2.76,2.14-.16,4.2,1.9,5.39,2.92l6.81-8.45c-3.6-2.93-8.44-4.29-12.85-3.96-8.07,.61-14.42,6.99-13.83,14.82,.46,6.18,5.43,10.05,10.03,12.35,1.86,.97,8.2,3.57,8.45,6.87,.13,1.77-1.38,2.93-3.09,3.06-3.73,.28-6.09-4.16-7.53-6.02l-8.75,7.12c4.95,5.35,10.14,8.9,17.36,8.35,8.5-.64,14.64-7.31,14.05-15.27-.5-6.73-5.88-11.18-11.49-13.72-1.72-.85-6.66-2.64-6.86-5.33Zm-1.83,19.88l2.44,2.95c.79,.62,1.6,.86,2.4,.8-1.74-1.04-3.3-2.21-4.84-3.76Z"/><path class="cls-3" d="M165.66,22.9l-.84-11.95,31.44-4.15,7.74,8.45,2.25,11.4-8.76,1.16,4.64,35.15-15.08,1.99-8.05-8.03-3.46-26.21-1.82,.24-8.05-8.03Zm31.46-5.39l-1.85-9.35-29.13,3.85,.64,9.51,8.64-1.14,4.64,35.15,13.01-1.72-4.64-35.15,8.7-1.15Z"/><path class="cls-3" d="M226.74,23.76l4.2-.56,7.75,8.44,.58,9.95,3.73,3.84,.8,11.59-27.48,3.66-8.06-8.02-6.26-47,27.85-3.71,7.75,8.44,2.26,11.4-13.13,1.75,.03,.24Zm-6.47,10.45l10.03-1.34-.49-8.29-10.64,1.42-1.55-11.61,13.07-1.74-1.86-9.34-25.48,3.39,5.94,44.57,25.48-3.39-.65-9.51-13.07,1.74-.79-5.9Z"/><path class="cls-3" d="M241.85,48.16L239.64,.8,256.43,.02c5.82-.27,11.24,2.61,14.58,7.18,.33,.48,.66,1.07,6.59,8.35,2.28,2.78,3.6,6.1,3.77,9.77,.23,4.9-1.71,9.54-5.23,12.95l7.79,16.95-14.52,.68-5.34-6.63,.32,6.86-15.2,.71-7.34-8.69Zm25.89-19.01c3.53-3.3,5.65-7.82,5.43-12.66-.4-8.64-8.16-15.65-16.68-15.25l-15.56,.72,2.09,44.91,13.11-.61-.6-12.87,2.82-.13,4.58,12.68,12.26-.57-7.45-16.23Zm-12.7-5.12l-.61-13.17,1.78-.08c2.39-.11,4.6,2.61,4.78,6.35,.17,3.74-1.65,6.71-3.92,6.81l-2.02,.09Z"/></g></g><g><g><path class="cls-1" d="M31.77,20.26l-8.69-1.18-4.78,35.13-13.01-1.77L10.07,17.31l-8.63-1.17L3.33,6.79l29.11,3.96-.67,9.5Z"/><path class="cls-1" d="M67.72,59.12l-12.22-1.04-2.88-13.17-2.81-.24-1.1,12.83-13.08-1.12,3.83-44.8,15.52,1.33c8.5,.73,15.26,8.69,14.53,17.31-.41,4.83-3.11,9.03-7.05,11.83l5.25,17.07Zm-15.15-23.64c2.26,.19,4.46-2.51,4.78-6.24,.32-3.73-1.52-6.72-3.9-6.92l-1.77-.15-1.12,13.14,2.02,.17Z"/><path class="cls-1" d="M91.35,15l-1.69,44.93-13.12-.49,1.68-44.93,13.12,.49Z"/><path class="cls-1" d="M114.9,15.09c8.53-.11,16.04,7.15,16.16,15.8,.11,8.28-6.9,16.16-15.74,16.28l-2.45,.03,.17,12.88-13.13,.17-.6-44.96,15.58-.21Zm-.19,22.7c2.27-.03,4.19-2.94,4.14-6.68s-2.17-6.54-4.56-6.5l-1.78,.02,.17,13.19,2.02-.03Z"/><path class="cls-1" d="M164.76,43.78c.6,7.95-5.54,14.63-14.05,15.27-7.22,.54-12.41-3-17.36-8.35l8.75-7.12c1.43,1.86,3.79,6.3,7.53,6.02,1.71-.13,3.23-1.29,3.09-3.06-.25-3.3-6.59-5.9-8.45-6.87-4.6-2.3-9.57-6.17-10.03-12.35-.59-7.83,5.76-14.21,13.83-14.82,4.4-.33,9.24,1.03,12.85,3.96l-6.81,8.45c-1.18-1.02-3.25-3.08-5.39-2.92-1.41,.11-2.43,1.23-2.32,2.76,.2,2.69,5.13,4.47,6.86,5.33,5.6,2.53,10.98,6.99,11.49,13.72Z"/><path class="cls-1" d="M197.12,17.51l-8.7,1.15,4.64,35.15-13.01,1.72-4.64-35.15-8.64,1.14-.64-9.51,29.13-3.85,1.85,9.35Z"/><path class="cls-1" d="M220.27,34.21l.79,5.9,13.07-1.74,.65,9.51-25.48,3.39-5.94-44.57,25.48-3.39,1.86,9.34-13.07,1.74,1.55,11.61,10.64-1.42,.49,8.29-10.03,1.34Z"/><path class="cls-1" d="M275.19,45.39l-12.26,.57-4.58-12.68-2.82,.13,.6,12.87-13.11,.61-2.09-44.91,15.56-.72c8.52-.4,16.27,6.61,16.68,15.25,.23,4.84-1.9,9.36-5.43,12.66l7.45,16.23Zm-18.13-21.45c2.27-.11,4.09-3.08,3.92-6.81-.17-3.74-2.39-6.46-4.78-6.35l-1.78,.08,.61,13.17,2.02-.09Z"/></g><g><path class="cls-1" d="M31.77,20.26l-8.69-1.18-4.78,35.13-13.01-1.77L10.07,17.31l-8.63-1.17L3.33,6.79l29.11,3.96-.67,9.5Z"/><path class="cls-1" d="M67.72,59.12l-12.22-1.04-2.88-13.17-2.81-.24-1.1,12.83-13.08-1.12,3.83-44.8,15.52,1.33c8.5,.73,15.26,8.69,14.53,17.31-.41,4.83-3.11,9.03-7.05,11.83l5.25,17.07Zm-15.15-23.64c2.26,.19,4.46-2.51,4.78-6.24,.32-3.73-1.52-6.72-3.9-6.92l-1.77-.15-1.12,13.14,2.02,.17Z"/><path class="cls-1" d="M91.35,15l-1.69,44.93-13.12-.49,1.68-44.93,13.12,.49Z"/><path class="cls-1" d="M114.9,15.09c8.53-.11,16.04,7.15,16.16,15.8,.11,8.28-6.9,16.16-15.74,16.28l-2.45,.03,.17,12.88-13.13,.17-.6-44.96,15.58-.21Zm-.19,22.7c2.27-.03,4.19-2.94,4.14-6.68s-2.17-6.54-4.56-6.5l-1.78,.02,.17,13.19,2.02-.03Z"/><path class="cls-1" d="M164.76,43.78c.6,7.95-5.54,14.63-14.05,15.27-7.22,.54-12.41-3-17.36-8.35l8.75-7.12c1.43,1.86,3.79,6.3,7.53,6.02,1.71-.13,3.23-1.29,3.09-3.06-.25-3.3-6.59-5.9-8.45-6.87-4.6-2.3-9.57-6.17-10.03-12.35-.59-7.83,5.76-14.21,13.83-14.82,4.4-.33,9.24,1.03,12.85,3.96l-6.81,8.45c-1.18-1.02-3.25-3.08-5.39-2.92-1.41,.11-2.43,1.23-2.32,2.76,.2,2.69,5.13,4.47,6.86,5.33,5.6,2.53,10.98,6.99,11.49,13.72Z"/><path class="cls-1" d="M197.12,17.51l-8.7,1.15,4.64,35.15-13.01,1.72-4.64-35.15-8.64,1.14-.64-9.51,29.13-3.85,1.85,9.35Z"/><path class="cls-1" d="M220.27,34.21l.79,5.9,13.07-1.74,.65,9.51-25.48,3.39-5.94-44.57,25.48-3.39,1.86,9.34-13.07,1.74,1.55,11.61,10.64-1.42,.49,8.29-10.03,1.34Z"/><path class="cls-1" d="M275.19,45.39l-12.26,.57-4.58-12.68-2.82,.13,.6,12.87-13.11,.61-2.09-44.91,15.56-.72c8.52-.4,16.27,6.61,16.68,15.25,.23,4.84-1.9,9.36-5.43,12.66l7.45,16.23Zm-18.13-21.45c2.27-.11,4.09-3.08,3.92-6.81-.17-3.74-2.39-6.46-4.78-6.35l-1.78,.08,.61,13.17,2.02-.09Z"/></g><g><path class="cls-1" d="M31.77,20.26l-8.69-1.18-4.78,35.13-13.01-1.77L10.07,17.31l-8.63-1.17L3.33,6.79l29.11,3.96-.67,9.5Z"/><path class="cls-1" d="M67.72,59.12l-12.22-1.04-2.88-13.17-2.81-.24-1.1,12.83-13.08-1.12,3.83-44.8,15.52,1.33c8.5,.73,15.26,8.69,14.53,17.31-.41,4.83-3.11,9.03-7.05,11.83l5.25,17.07Zm-15.15-23.64c2.26,.19,4.46-2.51,4.78-6.24,.32-3.73-1.52-6.72-3.9-6.92l-1.77-.15-1.12,13.14,2.02,.17Z"/><path class="cls-1" d="M91.35,15l-1.69,44.93-13.12-.49,1.68-44.93,13.12,.49Z"/><path class="cls-1" d="M114.9,15.09c8.53-.11,16.04,7.15,16.16,15.8,.11,8.28-6.9,16.16-15.74,16.28l-2.45,.03,.17,12.88-13.13,.17-.6-44.96,15.58-.21Zm-.19,22.7c2.27-.03,4.19-2.94,4.14-6.68s-2.17-6.54-4.56-6.5l-1.78,.02,.17,13.19,2.02-.03Z"/><path class="cls-1" d="M164.76,43.78c.6,7.95-5.54,14.63-14.05,15.27-7.22,.54-12.41-3-17.36-8.35l8.75-7.12c1.43,1.86,3.79,6.3,7.53,6.02,1.71-.13,3.23-1.29,3.09-3.06-.25-3.3-6.59-5.9-8.45-6.87-4.6-2.3-9.57-6.17-10.03-12.35-.59-7.83,5.76-14.21,13.83-14.82,4.4-.33,9.24,1.03,12.85,3.96l-6.81,8.45c-1.18-1.02-3.25-3.08-5.39-2.92-1.41,.11-2.43,1.23-2.32,2.76,.2,2.69,5.13,4.47,6.86,5.33,5.6,2.53,10.98,6.99,11.49,13.72Z"/><path class="cls-1" d="M197.12,17.51l-8.7,1.15,4.64,35.15-13.01,1.72-4.64-35.15-8.64,1.14-.64-9.51,29.13-3.85,1.85,9.35Z"/><path class="cls-1" d="M220.27,34.21l.79,5.9,13.07-1.74,.65,9.51-25.48,3.39-5.94-44.57,25.48-3.39,1.86,9.34-13.07,1.74,1.55,11.61,10.64-1.42,.49,8.29-10.03,1.34Z"/><path class="cls-1" d="M275.19,45.39l-12.26,.57-4.58-12.68-2.82,.13,.6,12.87-13.11,.61-2.09-44.91,15.56-.72c8.52-.4,16.27,6.61,16.68,15.25,.23,4.84-1.9,9.36-5.43,12.66l7.45,16.23Zm-18.13-21.45c2.27-.11,4.09-3.08,3.92-6.81-.17-3.74-2.39-6.46-4.78-6.35l-1.78,.08,.61,13.17,2.02-.09Z"/></g><g><path class="cls-1" d="M31.77,20.26l-8.69-1.18-4.78,35.13-13.01-1.77L10.07,17.31l-8.63-1.17L3.33,6.79l29.11,3.96-.67,9.5Z"/><path class="cls-1" d="M67.72,59.12l-12.22-1.04-2.88-13.17-2.81-.24-1.1,12.83-13.08-1.12,3.83-44.8,15.52,1.33c8.5,.73,15.26,8.69,14.53,17.31-.41,4.83-3.11,9.03-7.05,11.83l5.25,17.07Zm-15.15-23.64c2.26,.19,4.46-2.51,4.78-6.24,.32-3.73-1.52-6.72-3.9-6.92l-1.77-.15-1.12,13.14,2.02,.17Z"/><path class="cls-1" d="M91.35,15l-1.69,44.93-13.12-.49,1.68-44.93,13.12,.49Z"/><path class="cls-1" d="M114.9,15.09c8.53-.11,16.04,7.15,16.16,15.8,.11,8.28-6.9,16.16-15.74,16.28l-2.45,.03,.17,12.88-13.13,.17-.6-44.96,15.58-.21Zm-.19,22.7c2.27-.03,4.19-2.94,4.14-6.68s-2.17-6.54-4.56-6.5l-1.78,.02,.17,13.19,2.02-.03Z"/><path class="cls-1" d="M164.76,43.78c.6,7.95-5.54,14.63-14.05,15.27-7.22,.54-12.41-3-17.36-8.35l8.75-7.12c1.43,1.86,3.79,6.3,7.53,6.02,1.71-.13,3.23-1.29,3.09-3.06-.25-3.3-6.59-5.9-8.45-6.87-4.6-2.3-9.57-6.17-10.03-12.35-.59-7.83,5.76-14.21,13.83-14.82,4.4-.33,9.24,1.03,12.85,3.96l-6.81,8.45c-1.18-1.02-3.25-3.08-5.39-2.92-1.41,.11-2.43,1.23-2.32,2.76,.2,2.69,5.13,4.47,6.86,5.33,5.6,2.53,10.98,6.99,11.49,13.72Z"/><path class="cls-1" d="M197.12,17.51l-8.7,1.15,4.64,35.15-13.01,1.72-4.64-35.15-8.64,1.14-.64-9.51,29.13-3.85,1.85,9.35Z"/><path class="cls-1" d="M220.27,34.21l.79,5.9,13.07-1.74,.65,9.51-25.48,3.39-5.94-44.57,25.48-3.39,1.86,9.34-13.07,1.74,1.55,11.61,10.64-1.42,.49,8.29-10.03,1.34Z"/><path class="cls-1" d="M275.19,45.39l-12.26,.57-4.58-12.68-2.82,.13,.6,12.87-13.11,.61-2.09-44.91,15.56-.72c8.52-.4,16.27,6.61,16.68,15.25,.23,4.84-1.9,9.36-5.43,12.66l7.45,16.23Zm-18.13-21.45c2.27-.11,4.09-3.08,3.92-6.81-.17-3.74-2.39-6.46-4.78-6.35l-1.78,.08,.61,13.17,2.02-.09Z"/></g></g><g><g><path class="cls-3" d="M24.13,20.46l-4.78,35.13-15.44-2.1L8.69,18.36,0,17.17,2.34,5.42l31.42,4.28-.88,11.95-8.75-1.19Zm7.64-.2l.67-9.5L3.33,6.79l-1.89,9.34,8.63,1.17L5.29,52.43l13.01,1.77,4.78-35.13,8.69,1.18Z"/><path class="cls-3" d="M69.45,60.5l-14.91-1.28-2.88-13.17-.73-.06-1.1,12.83-15.52-1.33,4.04-47.24,16.75,1.43c9.17,.78,16.44,9.29,15.64,18.64-.42,4.89-2.88,9.17-6.83,12.22l5.54,17.96Zm-6.98-18.45c3.93-2.8,6.63-7.01,7.05-11.83,.74-8.62-6.03-16.58-14.53-17.31l-15.52-1.33-3.83,44.8,13.08,1.12,1.1-12.83,2.81,.24,2.88,13.17,12.22,1.04-5.25-17.07Zm-11.92-6.74l1.12-13.14,1.77,.15c2.38,.2,4.22,3.19,3.9,6.92-.32,3.73-2.52,6.43-4.78,6.24l-2.02-.17Zm2.12-1.05c1.65,.14,3.2-2.13,3.45-5.12s-1.13-5.45-2.78-5.59l-.55-.05-.91,10.7,.79,.07Z"/><path class="cls-3" d="M90.84,61.2l-15.57-.58,1.78-47.38,15.57,.58-1.78,47.38Zm.5-46.2l-13.12-.49-1.68,44.93,13.12,.49,1.69-44.93Z"/><path class="cls-3" d="M114.88,13.86c9.2-.12,17.28,7.62,17.4,17.01,.12,9.02-7.44,17.4-16.94,17.52l-1.23,.02,.17,12.88-15.58,.21-.63-47.41,16.81-.22Zm-15.56,1.43l.6,44.96,13.13-.17-.17-12.88,2.45-.03c8.83-.12,15.84-8,15.74-16.28-.11-8.65-7.63-15.91-16.16-15.8l-15.58,.21Zm13.36,22.52l-.17-13.19,1.78-.02c2.39-.03,4.51,2.76,4.56,6.5s-1.88,6.65-4.14,6.68l-2.02,.03Zm2.01-1.25c1.66-.02,2.97-2.43,2.93-5.44-.04-3.01-1.66-5.32-3.32-5.29h-.55s.14,10.74,.14,10.74h.8Z"/><path class="cls-3" d="M153.74,28.92c5.98,2.69,11.69,7.36,12.24,14.77,.65,8.69-5.94,15.89-15.18,16.58-7.77,.58-13.37-3.61-19.25-9.75l10.85-8.75,1.52,2.16c1.31,1.87,3.12,4.63,5.62,4.44,1.04-.08,2.03-.77,1.96-1.75-.17-2.2-4.81-4.31-6.99-5.44h.06s-1.53-.69-1.53-.69c-4.6-2.3-9.52-6.36-10.03-13.09-.64-8.5,6.16-15.47,14.97-16.13,4.65-.35,10.19,1.39,14.65,4.99l-8.39,10.35-1.38-1.19c-1.06-.97-2.64-2.32-4.04-2.22-.67,.05-1.24,.65-1.18,1.44,.11,1.47,3.43,3.13,5.28,3.97l.13,.05q.07,.06,.13,.05l.38,.16,.19,.05Zm-7.33-4.19c-.11-1.53,.91-2.65,2.32-2.76,2.14-.16,4.2,1.9,5.39,2.92l6.81-8.45c-3.6-2.93-8.44-4.29-12.85-3.96-8.07,.61-14.42,6.99-13.83,14.82,.46,6.18,5.43,10.05,10.03,12.35,1.86,.97,8.2,3.57,8.45,6.87,.13,1.77-1.38,2.93-3.09,3.06-3.73,.28-6.09-4.16-7.53-6.02l-8.75,7.12c4.95,5.35,10.14,8.9,17.36,8.35,8.5-.64,14.64-7.31,14.05-15.27-.5-6.73-5.88-11.18-11.49-13.72-1.72-.85-6.66-2.64-6.86-5.33Z"/><path class="cls-3" d="M189.8,19.71l4.64,35.15-15.45,2.04-4.64-35.15-8.7,1.15-.84-11.95,31.44-4.15,2.3,11.76-8.76,1.16Zm7.32-2.2l-1.85-9.35-29.13,3.85,.64,9.51,8.64-1.14,4.64,35.15,13.01-1.72-4.64-35.15,8.7-1.15Z"/><path class="cls-3" d="M222.11,38.73l13.13-1.75,.85,11.95-27.85,3.71-6.26-47,27.85-3.71,2.31,11.76-13.13,1.75,1.22,9.18,10.7-1.43,.69,10.74-9.97,1.33,.46,3.47Zm-1.84-4.52l10.03-1.34-.49-8.29-10.64,1.42-1.55-11.61,13.07-1.74-1.86-9.34-25.48,3.39,5.94,44.57,25.48-3.39-.65-9.51-13.07,1.74-.79-5.9Z"/><path class="cls-3" d="M277.08,46.53l-14.95,.7-4.58-12.68-.73,.03,.6,12.87-15.56,.72L239.64,.8,256.43,.02c9.19-.43,17.52,7.04,17.96,16.42,.23,4.9-1.65,9.47-5.17,13.01l7.86,17.07Zm-9.34-17.37c3.53-3.3,5.65-7.82,5.43-12.66-.4-8.64-8.16-15.65-16.68-15.25l-15.56,.72,2.09,44.91,13.11-.61-.6-12.87,2.82-.13,4.58,12.68,12.26-.57-7.45-16.23Zm-12.7-5.12l-.61-13.17,1.78-.08c2.39-.11,4.6,2.61,4.78,6.35,.17,3.74-1.65,6.71-3.92,6.81l-2.02,.09Zm1.96-1.32c1.66-.08,2.89-2.53,2.75-5.53-.14-3-1.84-5.26-3.5-5.18l-.55,.03,.5,10.72,.8-.04Z"/></g><g><path class="cls-3" d="M24.13,20.46l-4.78,35.13-15.44-2.1L8.69,18.36,0,17.17,2.34,5.42l31.42,4.28-.88,11.95-8.75-1.19Zm7.64-.2l.67-9.5L3.33,6.79l-1.89,9.34,8.63,1.17L5.29,52.43l13.01,1.77,4.78-35.13,8.69,1.18Z"/><path class="cls-3" d="M69.45,60.5l-14.91-1.28-2.88-13.17-.73-.06-1.1,12.83-15.52-1.33,4.04-47.24,16.75,1.43c9.17,.78,16.44,9.29,15.64,18.64-.42,4.89-2.88,9.17-6.83,12.22l5.54,17.96Zm-6.98-18.45c3.93-2.8,6.63-7.01,7.05-11.83,.74-8.62-6.03-16.58-14.53-17.31l-15.52-1.33-3.83,44.8,13.08,1.12,1.1-12.83,2.81,.24,2.88,13.17,12.22,1.04-5.25-17.07Zm-11.92-6.74l1.12-13.14,1.77,.15c2.38,.2,4.22,3.19,3.9,6.92-.32,3.73-2.52,6.43-4.78,6.24l-2.02-.17Zm2.12-1.05c1.65,.14,3.2-2.13,3.45-5.12s-1.13-5.45-2.78-5.59l-.55-.05-.91,10.7,.79,.07Z"/><path class="cls-3" d="M90.84,61.2l-15.57-.58,1.78-47.38,15.57,.58-1.78,47.38Zm.5-46.2l-13.12-.49-1.68,44.93,13.12,.49,1.69-44.93Z"/><path class="cls-3" d="M114.88,13.86c9.2-.12,17.28,7.62,17.4,17.01,.12,9.02-7.44,17.4-16.94,17.52l-1.23,.02,.17,12.88-15.58,.21-.63-47.41,16.81-.22Zm-15.56,1.43l.6,44.96,13.13-.17-.17-12.88,2.45-.03c8.83-.12,15.84-8,15.74-16.28-.11-8.65-7.63-15.91-16.16-15.8l-15.58,.21Zm13.36,22.52l-.17-13.19,1.78-.02c2.39-.03,4.51,2.76,4.56,6.5s-1.88,6.65-4.14,6.68l-2.02,.03Zm2.01-1.25c1.66-.02,2.97-2.43,2.93-5.44-.04-3.01-1.66-5.32-3.32-5.29h-.55s.14,10.74,.14,10.74h.8Z"/><path class="cls-3" d="M153.74,28.92c5.98,2.69,11.69,7.36,12.24,14.77,.65,8.69-5.94,15.89-15.18,16.58-7.77,.58-13.37-3.61-19.25-9.75l10.85-8.75,1.52,2.16c1.31,1.87,3.12,4.63,5.62,4.44,1.04-.08,2.03-.77,1.96-1.75-.17-2.2-4.81-4.31-6.99-5.44h.06s-1.53-.69-1.53-.69c-4.6-2.3-9.52-6.36-10.03-13.09-.64-8.5,6.16-15.47,14.97-16.13,4.65-.35,10.19,1.39,14.65,4.99l-8.39,10.35-1.38-1.19c-1.06-.97-2.64-2.32-4.04-2.22-.67,.05-1.24,.65-1.18,1.44,.11,1.47,3.43,3.13,5.28,3.97l.13,.05q.07,.06,.13,.05l.38,.16,.19,.05Zm-7.33-4.19c-.11-1.53,.91-2.65,2.32-2.76,2.14-.16,4.2,1.9,5.39,2.92l6.81-8.45c-3.6-2.93-8.44-4.29-12.85-3.96-8.07,.61-14.42,6.99-13.83,14.82,.46,6.18,5.43,10.05,10.03,12.35,1.86,.97,8.2,3.57,8.45,6.87,.13,1.77-1.38,2.93-3.09,3.06-3.73,.28-6.09-4.16-7.53-6.02l-8.75,7.12c4.95,5.35,10.14,8.9,17.36,8.35,8.5-.64,14.64-7.31,14.05-15.27-.5-6.73-5.88-11.18-11.49-13.72-1.72-.85-6.66-2.64-6.86-5.33Z"/><path class="cls-3" d="M189.8,19.71l4.64,35.15-15.45,2.04-4.64-35.15-8.7,1.15-.84-11.95,31.44-4.15,2.3,11.76-8.76,1.16Zm7.32-2.2l-1.85-9.35-29.13,3.85,.64,9.51,8.64-1.14,4.64,35.15,13.01-1.72-4.64-35.15,8.7-1.15Z"/><path class="cls-3" d="M222.11,38.73l13.13-1.75,.85,11.95-27.85,3.71-6.26-47,27.85-3.71,2.31,11.76-13.13,1.75,1.22,9.18,10.7-1.43,.69,10.74-9.97,1.33,.46,3.47Zm-1.84-4.52l10.03-1.34-.49-8.29-10.64,1.42-1.55-11.61,13.07-1.74-1.86-9.34-25.48,3.39,5.94,44.57,25.48-3.39-.65-9.51-13.07,1.74-.79-5.9Z"/><path class="cls-3" d="M277.08,46.53l-14.95,.7-4.58-12.68-.73,.03,.6,12.87-15.56,.72L239.64,.8,256.43,.02c9.19-.43,17.52,7.04,17.96,16.42,.23,4.9-1.65,9.47-5.17,13.01l7.86,17.07Zm-9.34-17.37c3.53-3.3,5.65-7.82,5.43-12.66-.4-8.64-8.16-15.65-16.68-15.25l-15.56,.72,2.09,44.91,13.11-.61-.6-12.87,2.82-.13,4.58,12.68,12.26-.57-7.45-16.23Zm-12.7-5.12l-.61-13.17,1.78-.08c2.39-.11,4.6,2.61,4.78,6.35,.17,3.74-1.65,6.71-3.92,6.81l-2.02,.09Zm1.96-1.32c1.66-.08,2.89-2.53,2.75-5.53-.14-3-1.84-5.26-3.5-5.18l-.55,.03,.5,10.72,.8-.04Z"/></g><g><path class="cls-3" d="M24.13,20.46l-4.78,35.13-15.44-2.1L8.69,18.36,0,17.17,2.34,5.42l31.42,4.28-.88,11.95-8.75-1.19Zm7.64-.2l.67-9.5L3.33,6.79l-1.89,9.34,8.63,1.17L5.29,52.43l13.01,1.77,4.78-35.13,8.69,1.18Z"/><path class="cls-3" d="M69.45,60.5l-14.91-1.28-2.88-13.17-.73-.06-1.1,12.83-15.52-1.33,4.04-47.24,16.75,1.43c9.17,.78,16.44,9.29,15.64,18.64-.42,4.89-2.88,9.17-6.83,12.22l5.54,17.96Zm-6.98-18.45c3.93-2.8,6.63-7.01,7.05-11.83,.74-8.62-6.03-16.58-14.53-17.31l-15.52-1.33-3.83,44.8,13.08,1.12,1.1-12.83,2.81,.24,2.88,13.17,12.22,1.04-5.25-17.07Zm-11.92-6.74l1.12-13.14,1.77,.15c2.38,.2,4.22,3.19,3.9,6.92-.32,3.73-2.52,6.43-4.78,6.24l-2.02-.17Zm2.12-1.05c1.65,.14,3.2-2.13,3.45-5.12s-1.13-5.45-2.78-5.59l-.55-.05-.91,10.7,.79,.07Z"/><path class="cls-3" d="M90.84,61.2l-15.57-.58,1.78-47.38,15.57,.58-1.78,47.38Zm.5-46.2l-13.12-.49-1.68,44.93,13.12,.49,1.69-44.93Z"/><path class="cls-3" d="M114.88,13.86c9.2-.12,17.28,7.62,17.4,17.01,.12,9.02-7.44,17.4-16.94,17.52l-1.23,.02,.17,12.88-15.58,.21-.63-47.41,16.81-.22Zm-15.56,1.43l.6,44.96,13.13-.17-.17-12.88,2.45-.03c8.83-.12,15.84-8,15.74-16.28-.11-8.65-7.63-15.91-16.16-15.8l-15.58,.21Zm13.36,22.52l-.17-13.19,1.78-.02c2.39-.03,4.51,2.76,4.56,6.5s-1.88,6.65-4.14,6.68l-2.02,.03Zm2.01-1.25c1.66-.02,2.97-2.43,2.93-5.44-.04-3.01-1.66-5.32-3.32-5.29h-.55s.14,10.74,.14,10.74h.8Z"/><path class="cls-3" d="M153.74,28.92c5.98,2.69,11.69,7.36,12.24,14.77,.65,8.69-5.94,15.89-15.18,16.58-7.77,.58-13.37-3.61-19.25-9.75l10.85-8.75,1.52,2.16c1.31,1.87,3.12,4.63,5.62,4.44,1.04-.08,2.03-.77,1.96-1.75-.17-2.2-4.81-4.31-6.99-5.44h.06s-1.53-.69-1.53-.69c-4.6-2.3-9.52-6.36-10.03-13.09-.64-8.5,6.16-15.47,14.97-16.13,4.65-.35,10.19,1.39,14.65,4.99l-8.39,10.35-1.38-1.19c-1.06-.97-2.64-2.32-4.04-2.22-.67,.05-1.24,.65-1.18,1.44,.11,1.47,3.43,3.13,5.28,3.97l.13,.05q.07,.06,.13,.05l.38,.16,.19,.05Zm-7.33-4.19c-.11-1.53,.91-2.65,2.32-2.76,2.14-.16,4.2,1.9,5.39,2.92l6.81-8.45c-3.6-2.93-8.44-4.29-12.85-3.96-8.07,.61-14.42,6.99-13.83,14.82,.46,6.18,5.43,10.05,10.03,12.35,1.86,.97,8.2,3.57,8.45,6.87,.13,1.77-1.38,2.93-3.09,3.06-3.73,.28-6.09-4.16-7.53-6.02l-8.75,7.12c4.95,5.35,10.14,8.9,17.36,8.35,8.5-.64,14.64-7.31,14.05-15.27-.5-6.73-5.88-11.18-11.49-13.72-1.72-.85-6.66-2.64-6.86-5.33Z"/><path class="cls-3" d="M189.8,19.71l4.64,35.15-15.45,2.04-4.64-35.15-8.7,1.15-.84-11.95,31.44-4.15,2.3,11.76-8.76,1.16Zm7.32-2.2l-1.85-9.35-29.13,3.85,.64,9.51,8.64-1.14,4.64,35.15,13.01-1.72-4.64-35.15,8.7-1.15Z"/><path class="cls-3" d="M222.11,38.73l13.13-1.75,.85,11.95-27.85,3.71-6.26-47,27.85-3.71,2.31,11.76-13.13,1.75,1.22,9.18,10.7-1.43,.69,10.74-9.97,1.33,.46,3.47Zm-1.84-4.52l10.03-1.34-.49-8.29-10.64,1.42-1.55-11.61,13.07-1.74-1.86-9.34-25.48,3.39,5.94,44.57,25.48-3.39-.65-9.51-13.07,1.74-.79-5.9Z"/><path class="cls-3" d="M277.08,46.53l-14.95,.7-4.58-12.68-.73,.03,.6,12.87-15.56,.72L239.64,.8,256.43,.02c9.19-.43,17.52,7.04,17.96,16.42,.23,4.9-1.65,9.47-5.17,13.01l7.86,17.07Zm-9.34-17.37c3.53-3.3,5.65-7.82,5.43-12.66-.4-8.64-8.16-15.65-16.68-15.25l-15.56,.72,2.09,44.91,13.11-.61-.6-12.87,2.82-.13,4.58,12.68,12.26-.57-7.45-16.23Zm-12.7-5.12l-.61-13.17,1.78-.08c2.39-.11,4.6,2.61,4.78,6.35,.17,3.74-1.65,6.71-3.92,6.81l-2.02,.09Zm1.96-1.32c1.66-.08,2.89-2.53,2.75-5.53-.14-3-1.84-5.26-3.5-5.18l-.55,.03,.5,10.72,.8-.04Z"/></g><g><path class="cls-3" d="M24.13,20.46l-4.78,35.13-15.44-2.1L8.69,18.36,0,17.17,2.34,5.42l31.42,4.28-.88,11.95-8.75-1.19Zm7.64-.2l.67-9.5L3.33,6.79l-1.89,9.34,8.63,1.17L5.29,52.43l13.01,1.77,4.78-35.13,8.69,1.18Z"/><path class="cls-3" d="M69.45,60.5l-14.91-1.28-2.88-13.17-.73-.06-1.1,12.83-15.52-1.33,4.04-47.24,16.75,1.43c9.17,.78,16.44,9.29,15.64,18.64-.42,4.89-2.88,9.17-6.83,12.22l5.54,17.96Zm-6.98-18.45c3.93-2.8,6.63-7.01,7.05-11.83,.74-8.62-6.03-16.58-14.53-17.31l-15.52-1.33-3.83,44.8,13.08,1.12,1.1-12.83,2.81,.24,2.88,13.17,12.22,1.04-5.25-17.07Zm-11.92-6.74l1.12-13.14,1.77,.15c2.38,.2,4.22,3.19,3.9,6.92-.32,3.73-2.52,6.43-4.78,6.24l-2.02-.17Zm2.12-1.05c1.65,.14,3.2-2.13,3.45-5.12s-1.13-5.45-2.78-5.59l-.55-.05-.91,10.7,.79,.07Z"/><path class="cls-3" d="M90.84,61.2l-15.57-.58,1.78-47.38,15.57,.58-1.78,47.38Zm.5-46.2l-13.12-.49-1.68,44.93,13.12,.49,1.69-44.93Z"/><path class="cls-3" d="M114.88,13.86c9.2-.12,17.28,7.62,17.4,17.01,.12,9.02-7.44,17.4-16.94,17.52l-1.23,.02,.17,12.88-15.58,.21-.63-47.41,16.81-.22Zm-15.56,1.43l.6,44.96,13.13-.17-.17-12.88,2.45-.03c8.83-.12,15.84-8,15.74-16.28-.11-8.65-7.63-15.91-16.16-15.8l-15.58,.21Zm13.36,22.52l-.17-13.19,1.78-.02c2.39-.03,4.51,2.76,4.56,6.5s-1.88,6.65-4.14,6.68l-2.02,.03Zm2.01-1.25c1.66-.02,2.97-2.43,2.93-5.44-.04-3.01-1.66-5.32-3.32-5.29h-.55s.14,10.74,.14,10.74h.8Z"/><path class="cls-3" d="M153.74,28.92c5.98,2.69,11.69,7.36,12.24,14.77,.65,8.69-5.94,15.89-15.18,16.58-7.77,.58-13.37-3.61-19.25-9.75l10.85-8.75,1.52,2.16c1.31,1.87,3.12,4.63,5.62,4.44,1.04-.08,2.03-.77,1.96-1.75-.17-2.2-4.81-4.31-6.99-5.44h.06s-1.53-.69-1.53-.69c-4.6-2.3-9.52-6.36-10.03-13.09-.64-8.5,6.16-15.47,14.97-16.13,4.65-.35,10.19,1.39,14.65,4.99l-8.39,10.35-1.38-1.19c-1.06-.97-2.64-2.32-4.04-2.22-.67,.05-1.24,.65-1.18,1.44,.11,1.47,3.43,3.13,5.28,3.97l.13,.05q.07,.06,.13,.05l.38,.16,.19,.05Zm-7.33-4.19c-.11-1.53,.91-2.65,2.32-2.76,2.14-.16,4.2,1.9,5.39,2.92l6.81-8.45c-3.6-2.93-8.44-4.29-12.85-3.96-8.07,.61-14.42,6.99-13.83,14.82,.46,6.18,5.43,10.05,10.03,12.35,1.86,.97,8.2,3.57,8.45,6.87,.13,1.77-1.38,2.93-3.09,3.06-3.73,.28-6.09-4.16-7.53-6.02l-8.75,7.12c4.95,5.35,10.14,8.9,17.36,8.35,8.5-.64,14.64-7.31,14.05-15.27-.5-6.73-5.88-11.18-11.49-13.72-1.72-.85-6.66-2.64-6.86-5.33Z"/><path class="cls-3" d="M189.8,19.71l4.64,35.15-15.45,2.04-4.64-35.15-8.7,1.15-.84-11.95,31.44-4.15,2.3,11.76-8.76,1.16Zm7.32-2.2l-1.85-9.35-29.13,3.85,.64,9.51,8.64-1.14,4.64,35.15,13.01-1.72-4.64-35.15,8.7-1.15Z"/><path class="cls-3" d="M222.11,38.73l13.13-1.75,.85,11.95-27.85,3.71-6.26-47,27.85-3.71,2.31,11.76-13.13,1.75,1.22,9.18,10.7-1.43,.69,10.74-9.97,1.33,.46,3.47Zm-1.84-4.52l10.03-1.34-.49-8.29-10.64,1.42-1.55-11.61,13.07-1.74-1.86-9.34-25.48,3.39,5.94,44.57,25.48-3.39-.65-9.51-13.07,1.74-.79-5.9Z"/><path class="cls-3" d="M277.08,46.53l-14.95,.7-4.58-12.68-.73,.03,.6,12.87-15.56,.72L239.64,.8,256.43,.02c9.19-.43,17.52,7.04,17.96,16.42,.23,4.9-1.65,9.47-5.17,13.01l7.86,17.07Zm-9.34-17.37c3.53-3.3,5.65-7.82,5.43-12.66-.4-8.64-8.16-15.65-16.68-15.25l-15.56,.72,2.09,44.91,13.11-.61-.6-12.87,2.82-.13,4.58,12.68,12.26-.57-7.45-16.23Zm-12.7-5.12l-.61-13.17,1.78-.08c2.39-.11,4.6,2.61,4.78,6.35,.17,3.74-1.65,6.71-3.92,6.81l-2.02,.09Zm1.96-1.32c1.66-.08,2.89-2.53,2.75-5.53-.14-3-1.84-5.26-3.5-5.18l-.55,.03,.5,10.72,.8-.04Z"/></g></g><g><g><path class="cls-2" d="M32.44,10.76l-.67,9.5-8.69-1.18-4.78,35.13-13.01-1.77L10.07,17.31l-8.63-1.17L3.33,6.79l29.11,3.96Zm-10,7.49l8.63,1.18,.6-8.03L3.9,7.61l-1.57,7.9,8.57,1.17L6.12,51.8l11.55,1.57,4.78-35.13Z"/><path class="cls-2" d="M67.72,59.12l-12.22-1.04-2.88-13.17-2.81-.24-1.1,12.83-13.08-1.12,3.83-44.8,15.52,1.33c8.5,.73,15.26,8.69,14.53,17.31-.41,4.83-3.11,9.03-7.05,11.83l5.25,17.07Zm-11.61-1.73l10.57,.9-5.05-16.56c2.22-1.53,3.91-3.3,5.06-5.23,1.22-2.05,1.89-4.15,2.08-6.35,.33-3.91-.98-7.96-3.61-11.08-2.64-3-6.1-5.02-10.25-5.43l-14.79-1.26-3.71,43.33,11.61,.99,1.1-12.83,4.1,.35,2.88,13.17Zm-2.6-35.81c2.93,.25,4.92,3.68,4.57,7.72-.17,2.02-.8,3.63-1.84,4.95-1.05,1.45-2.33,2.08-3.74,1.96l-2.75-.23,1.25-14.61,2.51,.21Zm-.94,13.89c2.26,.19,4.46-2.51,4.78-6.24,.32-3.73-1.52-6.72-3.9-6.92l-1.77-.15-1.12,13.14,2.02,.17Z"/><path class="cls-2" d="M78.23,14.51l13.12,.49-1.69,44.93-13.12-.49,1.68-44.93Zm10.73,44.66l1.63-43.46-11.65-.44-1.63,43.46,11.65,.44Z"/><path class="cls-2" d="M114.9,15.09c8.53-.11,16.04,7.15,16.16,15.8,.11,8.28-6.9,16.16-15.74,16.28l-2.45,.03,.17,12.88-13.13,.17-.6-44.96,15.58-.21Zm15.42,15.81c-.05-3.93-1.76-7.83-4.68-10.67-2.92-2.72-6.56-4.39-10.73-4.4l-14.84,.2,.58,43.49,11.65-.15-.17-12.88,3.19-.04c3.99-.05,7.83-1.7,10.67-4.87,2.85-2.92,4.39-6.81,4.34-10.67Zm-16.04-7.03c2.94-.04,5.26,3.18,5.31,7.23,.03,2.02-.44,3.69-1.34,5.11-.9,1.55-2.12,2.3-3.53,2.32l-2.76,.04-.19-14.66,2.52-.03Zm.43,13.92c2.27-.03,4.19-2.94,4.14-6.68s-2.17-6.54-4.56-6.5l-1.78,.02,.17,13.19,2.02-.03Z"/><path class="cls-2" d="M164.76,43.78c.6,7.95-5.54,14.63-14.05,15.27-7.22,.54-12.41-3-17.36-8.35l8.75-7.12c1.43,1.86,3.79,6.3,7.53,6.02,1.71-.13,3.23-1.29,3.09-3.06-.25-3.3-6.59-5.9-8.45-6.87-4.6-2.3-9.57-6.17-10.03-12.35-.59-7.83,5.76-14.21,13.83-14.82,4.4-.33,9.24,1.03,12.85,3.96l-6.81,8.45c-1.18-1.02-3.25-3.08-5.39-2.92-1.41,.11-2.43,1.23-2.32,2.76,.2,2.69,5.13,4.47,6.86,5.33,5.6,2.53,10.98,6.99,11.49,13.72Zm-.73,.06c-.46-6.18-5.26-10.19-11.07-13.07-2.86-1.26-7.07-3.16-7.28-5.97-.14-1.9,1.1-3.4,2.99-3.55,2.2-.17,4.05,1.48,5.36,2.61l5.85-7.27c-3.2-2.41-7.6-3.67-11.76-3.36-7.03,.53-13.74,6.26-13.16,14.03,.4,5.32,4.75,9.24,9.62,11.76,3.51,1.64,8.61,4.09,8.86,7.45,.16,2.14-1.63,3.69-3.77,3.85-3.79,.28-6.16-3.41-7.75-5.69l-7.48,6.1c4.8,4.93,9.47,8.09,16.19,7.58,7.28-.55,13.97-6.52,13.37-14.48Z"/><path class="cls-2" d="M195.27,8.16l1.85,9.35-8.7,1.15,4.64,35.15-13.01,1.72-4.64-35.15-8.64,1.14-.64-9.51,29.13-3.85Zm-7.67,9.86l8.64-1.14-1.54-7.9-27.79,3.67,.57,8.03,8.57-1.13,4.64,35.15,11.55-1.53-4.64-35.15Z"/><path class="cls-2" d="M220.27,34.21l.79,5.9,13.07-1.74,.65,9.51-25.48,3.39-5.94-44.57,25.48-3.39,1.86,9.34-13.07,1.74,1.55,11.61,10.64-1.42,.49,8.29-10.03,1.34Zm13.17,4.99l-13.01,1.73-.98-7.36,10.09-1.34-.41-6.81-10.58,1.41-1.74-13.07,13.01-1.73-1.55-7.9-24.08,3.21,5.74,43.11,24.08-3.21-.57-8.03Z"/><path class="cls-2" d="M275.19,45.39l-12.26,.57-4.58-12.68-2.82,.13,.6,12.87-13.11,.61-2.09-44.91,15.56-.72c8.52-.4,16.27,6.61,16.68,15.25,.23,4.84-1.9,9.36-5.43,12.66l7.45,16.23Zm-11.74-.19l10.6-.49-7.18-15.75c2-1.81,3.45-3.78,4.33-5.85,.94-2.19,1.33-4.36,1.23-6.57-.18-3.92-2.02-7.77-5.03-10.51-3.01-2.62-6.7-4.17-10.87-4.04l-14.83,.69,2.02,43.44,11.64-.54-.6-12.87,4.11-.19,4.58,12.68Zm-7.29-35.15c2.94-.14,5.36,3.01,5.55,7.05,.09,2.02-.32,3.7-1.17,5.15-.85,1.57-2.04,2.37-3.45,2.43l-2.76,.13-.68-14.64,2.51-.12Zm.89,13.9c2.27-.11,4.09-3.08,3.92-6.81-.17-3.74-2.39-6.46-4.78-6.35l-1.78,.08,.61,13.17,2.02-.09Z"/></g><g><path class="cls-2" d="M32.44,10.76l-.67,9.5-8.69-1.18-4.78,35.13-13.01-1.77L10.07,17.31l-8.63-1.17L3.33,6.79l29.11,3.96Zm-10,7.49l8.63,1.18,.6-8.03L3.9,7.61l-1.57,7.9,8.57,1.17L6.12,51.8l11.55,1.57,4.78-35.13Z"/><path class="cls-2" d="M67.72,59.12l-12.22-1.04-2.88-13.17-2.81-.24-1.1,12.83-13.08-1.12,3.83-44.8,15.52,1.33c8.5,.73,15.26,8.69,14.53,17.31-.41,4.83-3.11,9.03-7.05,11.83l5.25,17.07Zm-11.61-1.73l10.57,.9-5.05-16.56c2.22-1.53,3.91-3.3,5.06-5.23,1.22-2.05,1.89-4.15,2.08-6.35,.33-3.91-.98-7.96-3.61-11.08-2.64-3-6.1-5.02-10.25-5.43l-14.79-1.26-3.71,43.33,11.61,.99,1.1-12.83,4.1,.35,2.88,13.17Zm-2.6-35.81c2.93,.25,4.92,3.68,4.57,7.72-.17,2.02-.8,3.63-1.84,4.95-1.05,1.45-2.33,2.08-3.74,1.96l-2.75-.23,1.25-14.61,2.51,.21Zm-.94,13.89c2.26,.19,4.46-2.51,4.78-6.24,.32-3.73-1.52-6.72-3.9-6.92l-1.77-.15-1.12,13.14,2.02,.17Z"/><path class="cls-2" d="M78.23,14.51l13.12,.49-1.69,44.93-13.12-.49,1.68-44.93Zm10.73,44.66l1.63-43.46-11.65-.44-1.63,43.46,11.65,.44Z"/><path class="cls-2" d="M114.9,15.09c8.53-.11,16.04,7.15,16.16,15.8,.11,8.28-6.9,16.16-15.74,16.28l-2.45,.03,.17,12.88-13.13,.17-.6-44.96,15.58-.21Zm15.42,15.81c-.05-3.93-1.76-7.83-4.68-10.67-2.92-2.72-6.56-4.39-10.73-4.4l-14.84,.2,.58,43.49,11.65-.15-.17-12.88,3.19-.04c3.99-.05,7.83-1.7,10.67-4.87,2.85-2.92,4.39-6.81,4.34-10.67Zm-16.04-7.03c2.94-.04,5.26,3.18,5.31,7.23,.03,2.02-.44,3.69-1.34,5.11-.9,1.55-2.12,2.3-3.53,2.32l-2.76,.04-.19-14.66,2.52-.03Zm.43,13.92c2.27-.03,4.19-2.94,4.14-6.68s-2.17-6.54-4.56-6.5l-1.78,.02,.17,13.19,2.02-.03Z"/><path class="cls-2" d="M164.76,43.78c.6,7.95-5.54,14.63-14.05,15.27-7.22,.54-12.41-3-17.36-8.35l8.75-7.12c1.43,1.86,3.79,6.3,7.53,6.02,1.71-.13,3.23-1.29,3.09-3.06-.25-3.3-6.59-5.9-8.45-6.87-4.6-2.3-9.57-6.17-10.03-12.35-.59-7.83,5.76-14.21,13.83-14.82,4.4-.33,9.24,1.03,12.85,3.96l-6.81,8.45c-1.18-1.02-3.25-3.08-5.39-2.92-1.41,.11-2.43,1.23-2.32,2.76,.2,2.69,5.13,4.47,6.86,5.33,5.6,2.53,10.98,6.99,11.49,13.72Zm-.73,.06c-.46-6.18-5.26-10.19-11.07-13.07-2.86-1.26-7.07-3.16-7.28-5.97-.14-1.9,1.1-3.4,2.99-3.55,2.2-.17,4.05,1.48,5.36,2.61l5.85-7.27c-3.2-2.41-7.6-3.67-11.76-3.36-7.03,.53-13.74,6.26-13.16,14.03,.4,5.32,4.75,9.24,9.62,11.76,3.51,1.64,8.61,4.09,8.86,7.45,.16,2.14-1.63,3.69-3.77,3.85-3.79,.28-6.16-3.41-7.75-5.69l-7.48,6.1c4.8,4.93,9.47,8.09,16.19,7.58,7.28-.55,13.97-6.52,13.37-14.48Z"/><path class="cls-2" d="M195.27,8.16l1.85,9.35-8.7,1.15,4.64,35.15-13.01,1.72-4.64-35.15-8.64,1.14-.64-9.51,29.13-3.85Zm-7.67,9.86l8.64-1.14-1.54-7.9-27.79,3.67,.57,8.03,8.57-1.13,4.64,35.15,11.55-1.53-4.64-35.15Z"/><path class="cls-2" d="M220.27,34.21l.79,5.9,13.07-1.74,.65,9.51-25.48,3.39-5.94-44.57,25.48-3.39,1.86,9.34-13.07,1.74,1.55,11.61,10.64-1.42,.49,8.29-10.03,1.34Zm13.17,4.99l-13.01,1.73-.98-7.36,10.09-1.34-.41-6.81-10.58,1.41-1.74-13.07,13.01-1.73-1.55-7.9-24.08,3.21,5.74,43.11,24.08-3.21-.57-8.03Z"/><path class="cls-2" d="M275.19,45.39l-12.26,.57-4.58-12.68-2.82,.13,.6,12.87-13.11,.61-2.09-44.91,15.56-.72c8.52-.4,16.27,6.61,16.68,15.25,.23,4.84-1.9,9.36-5.43,12.66l7.45,16.23Zm-11.74-.19l10.6-.49-7.18-15.75c2-1.81,3.45-3.78,4.33-5.85,.94-2.19,1.33-4.36,1.23-6.57-.18-3.92-2.02-7.77-5.03-10.51-3.01-2.62-6.7-4.17-10.87-4.04l-14.83,.69,2.02,43.44,11.64-.54-.6-12.87,4.11-.19,4.58,12.68Zm-7.29-35.15c2.94-.14,5.36,3.01,5.55,7.05,.09,2.02-.32,3.7-1.17,5.15-.85,1.57-2.04,2.37-3.45,2.43l-2.76,.13-.68-14.64,2.51-.12Zm.89,13.9c2.27-.11,4.09-3.08,3.92-6.81-.17-3.74-2.39-6.46-4.78-6.35l-1.78,.08,.61,13.17,2.02-.09Z"/></g><g><path class="cls-2" d="M32.44,10.76l-.67,9.5-8.69-1.18-4.78,35.13-13.01-1.77L10.07,17.31l-8.63-1.17L3.33,6.79l29.11,3.96Zm-10,7.49l8.63,1.18,.6-8.03L3.9,7.61l-1.57,7.9,8.57,1.17L6.12,51.8l11.55,1.57,4.78-35.13Z"/><path class="cls-2" d="M67.72,59.12l-12.22-1.04-2.88-13.17-2.81-.24-1.1,12.83-13.08-1.12,3.83-44.8,15.52,1.33c8.5,.73,15.26,8.69,14.53,17.31-.41,4.83-3.11,9.03-7.05,11.83l5.25,17.07Zm-11.61-1.73l10.57,.9-5.05-16.56c2.22-1.53,3.91-3.3,5.06-5.23,1.22-2.05,1.89-4.15,2.08-6.35,.33-3.91-.98-7.96-3.61-11.08-2.64-3-6.1-5.02-10.25-5.43l-14.79-1.26-3.71,43.33,11.61,.99,1.1-12.83,4.1,.35,2.88,13.17Zm-2.6-35.81c2.93,.25,4.92,3.68,4.57,7.72-.17,2.02-.8,3.63-1.84,4.95-1.05,1.45-2.33,2.08-3.74,1.96l-2.75-.23,1.25-14.61,2.51,.21Zm-.94,13.89c2.26,.19,4.46-2.51,4.78-6.24,.32-3.73-1.52-6.72-3.9-6.92l-1.77-.15-1.12,13.14,2.02,.17Z"/><path class="cls-2" d="M78.23,14.51l13.12,.49-1.69,44.93-13.12-.49,1.68-44.93Zm10.73,44.66l1.63-43.46-11.65-.44-1.63,43.46,11.65,.44Z"/><path class="cls-2" d="M114.9,15.09c8.53-.11,16.04,7.15,16.16,15.8,.11,8.28-6.9,16.16-15.74,16.28l-2.45,.03,.17,12.88-13.13,.17-.6-44.96,15.58-.21Zm15.42,15.81c-.05-3.93-1.76-7.83-4.68-10.67-2.92-2.72-6.56-4.39-10.73-4.4l-14.84,.2,.58,43.49,11.65-.15-.17-12.88,3.19-.04c3.99-.05,7.83-1.7,10.67-4.87,2.85-2.92,4.39-6.81,4.34-10.67Zm-16.04-7.03c2.94-.04,5.26,3.18,5.31,7.23,.03,2.02-.44,3.69-1.34,5.11-.9,1.55-2.12,2.3-3.53,2.32l-2.76,.04-.19-14.66,2.52-.03Zm.43,13.92c2.27-.03,4.19-2.94,4.14-6.68s-2.17-6.54-4.56-6.5l-1.78,.02,.17,13.19,2.02-.03Z"/><path class="cls-2" d="M164.76,43.78c.6,7.95-5.54,14.63-14.05,15.27-7.22,.54-12.41-3-17.36-8.35l8.75-7.12c1.43,1.86,3.79,6.3,7.53,6.02,1.71-.13,3.23-1.29,3.09-3.06-.25-3.3-6.59-5.9-8.45-6.87-4.6-2.3-9.57-6.17-10.03-12.35-.59-7.83,5.76-14.21,13.83-14.82,4.4-.33,9.24,1.03,12.85,3.96l-6.81,8.45c-1.18-1.02-3.25-3.08-5.39-2.92-1.41,.11-2.43,1.23-2.32,2.76,.2,2.69,5.13,4.47,6.86,5.33,5.6,2.53,10.98,6.99,11.49,13.72Zm-.73,.06c-.46-6.18-5.26-10.19-11.07-13.07-2.86-1.26-7.07-3.16-7.28-5.97-.14-1.9,1.1-3.4,2.99-3.55,2.2-.17,4.05,1.48,5.36,2.61l5.85-7.27c-3.2-2.41-7.6-3.67-11.76-3.36-7.03,.53-13.74,6.26-13.16,14.03,.4,5.32,4.75,9.24,9.62,11.76,3.51,1.64,8.61,4.09,8.86,7.45,.16,2.14-1.63,3.69-3.77,3.85-3.79,.28-6.16-3.41-7.75-5.69l-7.48,6.1c4.8,4.93,9.47,8.09,16.19,7.58,7.28-.55,13.97-6.52,13.37-14.48Z"/><path class="cls-2" d="M195.27,8.16l1.85,9.35-8.7,1.15,4.64,35.15-13.01,1.72-4.64-35.15-8.64,1.14-.64-9.51,29.13-3.85Zm-7.67,9.86l8.64-1.14-1.54-7.9-27.79,3.67,.57,8.03,8.57-1.13,4.64,35.15,11.55-1.53-4.64-35.15Z"/><path class="cls-2" d="M220.27,34.21l.79,5.9,13.07-1.74,.65,9.51-25.48,3.39-5.94-44.57,25.48-3.39,1.86,9.34-13.07,1.74,1.55,11.61,10.64-1.42,.49,8.29-10.03,1.34Zm13.17,4.99l-13.01,1.73-.98-7.36,10.09-1.34-.41-6.81-10.58,1.41-1.74-13.07,13.01-1.73-1.55-7.9-24.08,3.21,5.74,43.11,24.08-3.21-.57-8.03Z"/><path class="cls-2" d="M275.19,45.39l-12.26,.57-4.58-12.68-2.82,.13,.6,12.87-13.11,.61-2.09-44.91,15.56-.72c8.52-.4,16.27,6.61,16.68,15.25,.23,4.84-1.9,9.36-5.43,12.66l7.45,16.23Zm-11.74-.19l10.6-.49-7.18-15.75c2-1.81,3.45-3.78,4.33-5.85,.94-2.19,1.33-4.36,1.23-6.57-.18-3.92-2.02-7.77-5.03-10.51-3.01-2.62-6.7-4.17-10.87-4.04l-14.83,.69,2.02,43.44,11.64-.54-.6-12.87,4.11-.19,4.58,12.68Zm-7.29-35.15c2.94-.14,5.36,3.01,5.55,7.05,.09,2.02-.32,3.7-1.17,5.15-.85,1.57-2.04,2.37-3.45,2.43l-2.76,.13-.68-14.64,2.51-.12Zm.89,13.9c2.27-.11,4.09-3.08,3.92-6.81-.17-3.74-2.39-6.46-4.78-6.35l-1.78,.08,.61,13.17,2.02-.09Z"/></g><g><path class="cls-2" d="M32.44,10.76l-.67,9.5-8.69-1.18-4.78,35.13-13.01-1.77L10.07,17.31l-8.63-1.17L3.33,6.79l29.11,3.96Zm-10,7.49l8.63,1.18,.6-8.03L3.9,7.61l-1.57,7.9,8.57,1.17L6.12,51.8l11.55,1.57,4.78-35.13Z"/><path class="cls-2" d="M67.72,59.12l-12.22-1.04-2.88-13.17-2.81-.24-1.1,12.83-13.08-1.12,3.83-44.8,15.52,1.33c8.5,.73,15.26,8.69,14.53,17.31-.41,4.83-3.11,9.03-7.05,11.83l5.25,17.07Zm-11.61-1.73l10.57,.9-5.05-16.56c2.22-1.53,3.91-3.3,5.06-5.23,1.22-2.05,1.89-4.15,2.08-6.35,.33-3.91-.98-7.96-3.61-11.08-2.64-3-6.1-5.02-10.25-5.43l-14.79-1.26-3.71,43.33,11.61,.99,1.1-12.83,4.1,.35,2.88,13.17Zm-2.6-35.81c2.93,.25,4.92,3.68,4.57,7.72-.17,2.02-.8,3.63-1.84,4.95-1.05,1.45-2.33,2.08-3.74,1.96l-2.75-.23,1.25-14.61,2.51,.21Zm-.94,13.89c2.26,.19,4.46-2.51,4.78-6.24,.32-3.73-1.52-6.72-3.9-6.92l-1.77-.15-1.12,13.14,2.02,.17Z"/><path class="cls-2" d="M78.23,14.51l13.12,.49-1.69,44.93-13.12-.49,1.68-44.93Zm10.73,44.66l1.63-43.46-11.65-.44-1.63,43.46,11.65,.44Z"/><path class="cls-2" d="M114.9,15.09c8.53-.11,16.04,7.15,16.16,15.8,.11,8.28-6.9,16.16-15.74,16.28l-2.45,.03,.17,12.88-13.13,.17-.6-44.96,15.58-.21Zm15.42,15.81c-.05-3.93-1.76-7.83-4.68-10.67-2.92-2.72-6.56-4.39-10.73-4.4l-14.84,.2,.58,43.49,11.65-.15-.17-12.88,3.19-.04c3.99-.05,7.83-1.7,10.67-4.87,2.85-2.92,4.39-6.81,4.34-10.67Zm-16.04-7.03c2.94-.04,5.26,3.18,5.31,7.23,.03,2.02-.44,3.69-1.34,5.11-.9,1.55-2.12,2.3-3.53,2.32l-2.76,.04-.19-14.66,2.52-.03Zm.43,13.92c2.27-.03,4.19-2.94,4.14-6.68s-2.17-6.54-4.56-6.5l-1.78,.02,.17,13.19,2.02-.03Z"/><path class="cls-2" d="M164.76,43.78c.6,7.95-5.54,14.63-14.05,15.27-7.22,.54-12.41-3-17.36-8.35l8.75-7.12c1.43,1.86,3.79,6.3,7.53,6.02,1.71-.13,3.23-1.29,3.09-3.06-.25-3.3-6.59-5.9-8.45-6.87-4.6-2.3-9.57-6.17-10.03-12.35-.59-7.83,5.76-14.21,13.83-14.82,4.4-.33,9.24,1.03,12.85,3.96l-6.81,8.45c-1.18-1.02-3.25-3.08-5.39-2.92-1.41,.11-2.43,1.23-2.32,2.76,.2,2.69,5.13,4.47,6.86,5.33,5.6,2.53,10.98,6.99,11.49,13.72Zm-.73,.06c-.46-6.18-5.26-10.19-11.07-13.07-2.86-1.26-7.07-3.16-7.28-5.97-.14-1.9,1.1-3.4,2.99-3.55,2.2-.17,4.05,1.48,5.36,2.61l5.85-7.27c-3.2-2.41-7.6-3.67-11.76-3.36-7.03,.53-13.74,6.26-13.16,14.03,.4,5.32,4.75,9.24,9.62,11.76,3.51,1.64,8.61,4.09,8.86,7.45,.16,2.14-1.63,3.69-3.77,3.85-3.79,.28-6.16-3.41-7.75-5.69l-7.48,6.1c4.8,4.93,9.47,8.09,16.19,7.58,7.28-.55,13.97-6.52,13.37-14.48Z"/><path class="cls-2" d="M195.27,8.16l1.85,9.35-8.7,1.15,4.64,35.15-13.01,1.72-4.64-35.15-8.64,1.14-.64-9.51,29.13-3.85Zm-7.67,9.86l8.64-1.14-1.54-7.9-27.79,3.67,.57,8.03,8.57-1.13,4.64,35.15,11.55-1.53-4.64-35.15Z"/><path class="cls-2" d="M220.27,34.21l.79,5.9,13.07-1.74,.65,9.51-25.48,3.39-5.94-44.57,25.48-3.39,1.86,9.34-13.07,1.74,1.55,11.61,10.64-1.42,.49,8.29-10.03,1.34Zm13.17,4.99l-13.01,1.73-.98-7.36,10.09-1.34-.41-6.81-10.58,1.41-1.74-13.07,13.01-1.73-1.55-7.9-24.08,3.21,5.74,43.11,24.08-3.21-.57-8.03Z"/><path class="cls-2" d="M275.19,45.39l-12.26,.57-4.58-12.68-2.82,.13,.6,12.87-13.11,.61-2.09-44.91,15.56-.72c8.52-.4,16.27,6.61,16.68,15.25,.23,4.84-1.9,9.36-5.43,12.66l7.45,16.23Zm-11.74-.19l10.6-.49-7.18-15.75c2-1.81,3.45-3.78,4.33-5.85,.94-2.19,1.33-4.36,1.23-6.57-.18-3.92-2.02-7.77-5.03-10.51-3.01-2.62-6.7-4.17-10.87-4.04l-14.83,.69,2.02,43.44,11.64-.54-.6-12.87,4.11-.19,4.58,12.68Zm-7.29-35.15c2.94-.14,5.36,3.01,5.55,7.05,.09,2.02-.32,3.7-1.17,5.15-.85,1.57-2.04,2.37-3.45,2.43l-2.76,.13-.68-14.64,2.51-.12Zm.89,13.9c2.27-.11,4.09-3.08,3.92-6.81-.17-3.74-2.39-6.46-4.78-6.35l-1.78,.08,.61,13.17,2.02-.09Z"/></g></g></g></g></svg>